<?xml version="1.0" encoding="utf-8"?>
<!-- Generator: Adobe Illustrator 18.1.1, SVG Export Plug-In . SVG Version: 6.00 Build 0)  -->
<svg version="1.1" id="Layer_1" xmlns="http://www.w3.org/2000/svg" xmlns:xlink="http://www.w3.org/1999/xlink" x="0px" y="0px"
	 viewBox="0 0 193.6 108.9" enable-background="new 0 0 193.6 108.9" xml:space="preserve">
<g>
	<path d="M26.7,26.1h-5.1v-0.6h17.1v0.6h-5v18.2h0.4l15.8-18.2h-4.5v-0.6h9.9v0.6h-4.6L39,39.8l17.7,25.4h3.2v0.6H43.1v-0.6h5.1
		L34.1,45h-0.4v20.2h4.5v0.6H21.6v-0.6h5.1V26.1z"/>
	<path d="M73.3,24.5c9.4,0,19.4,8.4,19.4,21.1c0,12.8-10.3,21.1-19.4,21.1c-9.1,0-19.4-8.4-19.4-21.1C53.9,32.9,63.9,24.5,73.3,24.5
		z M64.8,62.1c1.8,2.9,4.9,4,8.5,4s6.7-1.1,8.5-4c2.8-4.6,2.9-13.6,2.9-16.5c0-2.9-0.1-11.8-2.9-16.5c-1.8-2.9-4.9-4-8.5-4
		s-6.8,1.1-8.5,4c-2.8,4.7-2.9,13.6-2.9,16.5C61.9,48.5,62,57.6,64.8,62.1z"/>
	<path d="M89.5,24.5c9.4,0,19.4,8.4,19.4,21.1c0,12.8-10.3,21.1-19.4,21.1c-9.1,0-19.4-8.4-19.4-21.1C70,32.9,80,24.5,89.5,24.5z
		 M80.9,62.1c1.8,2.9,4.9,4,8.5,4s6.7-1.1,8.5-4c2.8-4.6,2.9-13.6,2.9-16.5c0-2.9-0.1-11.8-2.9-16.5c-1.8-2.9-4.9-4-8.5-4
		s-6.8,1.1-8.5,4c-2.8,4.7-2.9,13.6-2.9,16.5C78.1,48.5,78.1,57.6,80.9,62.1z"/>
	<path d="M111.8,26.1h-5.1v-0.6h10.9l19.9,28.4V26.1h-5.1v-0.6h10.8v0.6h-5.1v40.1h-0.5l-25.3-35.9v34.9h5.1v0.6h-10.8v-0.6h5.1
		V26.1z"/>
	<path d="M142.5,51.9h0.5c1.2,8.3,6.8,14.2,12.8,14.2c4.7,0,9.2-2.5,9.2-7.7c0-4.6-2.9-6-11-9.9c-6.6-3.1-10.1-5-10.1-11.5
		c0-6.5,5-12.5,11.5-12.5c2.1,0,3.4,0.5,5.5,1.3c1,0.4,1.5,0.5,2,0.5c1.4,0,1.8-1.1,1.9-1.6h0.5V36h-0.5c-1.2-3.8-3.4-10.8-9.6-10.8
		c-2.9,0-7.4,1.7-7.4,6.8c0,5.4,4,7.2,11.4,10.7c5.5,2.5,10.1,4.6,10.1,11.1c0,6.8-6.4,13.1-13.3,13.1c-1.4,0-3.2,0-6.1-1
		c-2.4-0.8-3.2-1.1-4.4-1.1c-1.7,0-2.2,1.2-2.3,1.6h-0.5V51.9z"/>
	<path d="M27,73.5h2.2v4l3.1-4H35l-4,5.2l4.4,6.4h-2.6L29.2,80v5.2H27V73.5z"/>
	<path d="M49.6,73.5h2.2v11.6h-2.2V73.5z"/>
	<path d="M65.9,73.5h6.4v2.2h-2.1v9.4h-2.2v-9.4h-2.1V73.5z"/>
	<path d="M97.2,75.6L95.7,77c-1.1-1.1-2.2-1.7-3.5-1.7c-1.1,0-2,0.4-2.8,1.1c-0.8,0.8-1.1,1.7-1.1,2.8c0,0.8,0.2,1.5,0.5,2.1
		c0.3,0.6,0.8,1.1,1.4,1.4c0.6,0.3,1.3,0.5,2,0.5c0.6,0,1.2-0.1,1.8-0.4c0.5-0.2,1.1-0.7,1.7-1.3l1.5,1.6c-0.9,0.8-1.7,1.4-2.4,1.7
		c-0.8,0.3-1.6,0.5-2.6,0.5c-1.8,0-3.3-0.6-4.4-1.7c-1.1-1.1-1.7-2.6-1.7-4.4c0-1.2,0.3-2.2,0.8-3.1c0.5-0.9,1.3-1.6,2.2-2.2
		c1-0.5,2-0.8,3.1-0.8c1,0,1.9,0.2,2.8,0.6C95.8,74.3,96.6,74.8,97.2,75.6z"/>
	<path d="M111.9,73.5h2.2v4.4h3.9v-4.4h2.2v11.6H118V80h-3.9v5.1h-2.2V73.5z"/>
	<path d="M135.6,73.5h6.3v2.2h-4.1v2.1h4.1v2.1h-4.1V83h4.1v2.2h-6.3V73.5z"/>
	<path d="M156.8,73.5h2.1l5,7.6v-7.6h2.2v11.6h-2.1l-5-7.6v7.6h-2.2V73.5z"/>
</g>
<path d="M190.4,105.4H3.2V3.3h187.2V105.4z M7.6,101.1H186V7.7H7.6V101.1z"/>
<path d="M192.8,108.9H0.8c-0.4,0-0.8-0.4-0.8-0.8V0.8C0,0.4,0.4,0,0.8,0h192c0.4,0,0.8,0.4,0.8,0.8v107.3
	C193.6,108.6,193.2,108.9,192.8,108.9z M1.6,107.3H192V1.6H1.6V107.3z"/>
</svg>
